<?xml version="1.0" standalone="no"?><svg xmlns="http://www.w3.org/2000/svg" viewBox="0 0 1440 320"><path fill="#FD8468" fill-opacity="1" d="M0,128L26.7,106.7C53.3,85,107,43,160,37.3C213.3,32,267,64,320,106.7C373.3,149,427,203,480,202.7C533.3,203,587,149,640,138.7C693.3,128,747,160,800,176C853.3,192,907,192,960,176C1013.3,160,1067,128,1120,133.3C1173.3,139,1227,181,1280,181.3C1333.3,181,1387,139,1413,117.3L1440,96L1440,0L1413.3,0C1386.7,0,1333,0,1280,0C1226.7,0,1173,0,1120,0C1066.7,0,1013,0,960,0C906.7,0,853,0,800,0C746.7,0,693,0,640,0C586.7,0,533,0,480,0C426.7,0,373,0,320,0C266.7,0,213,0,160,0C106.7,0,53,0,27,0L0,0Z"></path></svg>